<svg viewBox="0 0 55 62" fill="none" xmlns="http://www.w3.org/2000/svg">
<circle cx="27.5029" cy="33.7932" r="26.8938" fill="#B6D8AF" stroke="#008030" stroke-width="1.12822"/>
<path fill-rule="evenodd" clip-rule="evenodd" d="M39.0187 9.86055C41.9836 7.76432 44.3515 4.98144 46.3783 1.96868C48.6233 -1.36847 47.7969 2.222 48.5139 11.7399C48.5139 22.5034 48.8933 34.6946 41.1528 42.1738C40.2614 43.0351 39.2719 43.8635 38.158 44.7121C34.0219 47.8632 25.6844 50.3013 20.9639 49.7417H17.5623L23.1526 42.8325C26.7517 38.4234 29.5643 36.0812 31.7948 35.6356C33.6135 35.2712 35.4198 34.4577 35.8102 33.827C36.266 33.0892 35.4029 32.9606 33.3901 33.4649L30.2627 34.2501L33.9226 29.6289C35.9354 27.0871 37.3547 24.7787 37.076 24.5C36.7962 24.2214 33.8911 27.2935 30.6181 31.3269C27.3462 35.3603 24.2967 38.8905 23.842 39.1714C23.3884 39.4512 23.3602 37.4182 23.7799 34.6529C24.1996 31.8876 24.1737 29.6244 23.7235 29.6244C23.2722 29.6244 22.54 32.5375 22.0944 36.0993C21.6386 39.7513 20.2464 44.0329 18.9015 45.9216L16.5176 49.2701L15.7448 46.4992C14.2036 40.9755 13.0304 33.1129 17.5623 26.3796C22.0944 19.6463 30.4442 14.6702 39.0187 9.86055Z" fill="#008030"/>
</svg>
