<svg width="36" height="36" viewBox="0 0 36 36" fill="none" xmlns="http://www.w3.org/2000/svg">
<path fill-rule="evenodd" clip-rule="evenodd" d="M24.5619 10.2442C24.5619 14.517 21.098 17.9809 16.8252 17.9809C12.5523 17.9809 9.08852 14.517 9.08852 10.2442C9.08852 5.97139 12.5523 2.50757 16.8252 2.50757C21.098 2.50757 24.5619 5.97139 24.5619 10.2442ZM20.8559 33.4543C18.9111 30.8399 14.891 27.6862 14.891 24.7505C14.891 22.743 15.4945 21.1564 16.4979 19.919C9.17165 20.0928 3.28601 26.0862 3.28601 33.4543H20.8559Z" fill="#282828"/>
<path d="M32.1221 22.1726C31.0822 20.4741 29.6328 20.1083 28.5999 20.1006C27.7192 20.0947 26.8936 20.5494 26.1259 21.0336L25.4987 21.5158L24.93 21.0344C24.1611 20.5494 23.2421 20.0938 22.3605 20.1006C21.3277 20.1083 19.8783 20.4741 18.8383 22.1726C17.9999 23.542 17.9778 25.1662 18.7776 26.6288C19.3963 27.76 20.3559 28.6629 21.284 29.5361C21.4474 29.6899 21.6018 29.8352 21.7554 29.9827C22.3311 30.5354 22.914 31.0683 23.4777 31.5838C24.0376 32.0957 24.6165 32.625 25.1846 33.1704L25.4802 33.4543L25.7758 33.1704C26.3439 32.625 26.9228 32.0957 27.4827 31.5838C28.0464 31.0684 28.6293 30.5354 29.205 29.9827C29.3586 29.8352 29.513 29.6899 29.6764 29.5361C30.6045 28.6629 31.5641 27.76 32.1828 26.6288C32.9827 25.1662 32.9605 23.542 32.1221 22.1726Z" fill="#008030"/>
</svg>
