<svg viewBox="0 0 27 27" fill="none" xmlns="http://www.w3.org/2000/svg">
<path fill-rule="evenodd" clip-rule="evenodd" d="M13.1309 26.5298C20.3106 26.5298 26.1309 20.7095 26.1309 13.5298C26.1309 6.35008 20.3106 0.529785 13.1309 0.529785C5.95116 0.529785 0.130859 6.35008 0.130859 13.5298C0.130859 20.7095 5.95116 26.5298 13.1309 26.5298Z" fill="#1C8ADB"/>
<path fill-rule="evenodd" clip-rule="evenodd" d="M20.2131 7.25146L19.9442 7.34896L5.35172 12.6066C5.24831 12.6386 5.15844 12.7039 5.09618 12.7925C5.03392 12.881 5.0028 12.9877 5.0077 13.0959C5.0126 13.204 5.05324 13.3074 5.12325 13.39C5.19326 13.4725 5.28869 13.5295 5.39456 13.552L9.17195 14.5861L9.87661 16.6543L10.5813 18.7225C10.6217 18.8239 10.6864 18.9138 10.7695 18.9846C10.8527 19.0553 10.9518 19.1047 11.0584 19.1284C11.1649 19.1522 11.2757 19.1495 11.381 19.1207C11.4863 19.092 11.583 19.0379 11.6626 18.9633L13.6141 17.1196L17.4462 19.7182C17.9145 20.0373 18.5822 19.8009 18.7018 19.275L21.2398 8.061C21.3639 7.50555 20.7789 7.04907 20.2131 7.25146ZM18.3502 9.74066L11.7572 15.1298L11.447 15.3838C11.3788 15.4379 11.3343 15.5163 11.3229 15.6025L11.2534 16.1757L11.0629 17.7859C11.0644 17.8055 11.0581 17.8249 11.0454 17.8399C11.0327 17.8548 11.0145 17.8641 10.9949 17.8657C10.9753 17.8672 10.9559 17.861 10.9409 17.8482C10.926 17.8355 10.9167 17.8173 10.9151 17.7977L10.3789 16.189L9.82491 14.5418C9.80148 14.4678 9.80459 14.3879 9.83371 14.3159C9.86283 14.2439 9.91613 14.1843 9.98445 14.1474L16.8449 10.2149L18.136 9.47623C18.3237 9.36691 18.5157 9.60475 18.3502 9.74066Z" fill="#282828"/>
</svg>
