<svg  viewBox="0 0 27 27" fill="none" xmlns="http://www.w3.org/2000/svg">
<path fill-rule="evenodd" clip-rule="evenodd" d="M26.4092 13.5298C26.4092 20.7095 20.5889 26.5298 13.4092 26.5298C6.22947 26.5298 0.40918 20.7095 0.40918 13.5298C0.40918 6.35008 6.22947 0.529785 13.4092 0.529785C20.5889 0.529785 26.4092 6.35008 26.4092 13.5298ZM18.2401 9.04797C19.3293 9.04797 20.2122 9.93127 20.2122 11.0211H20.212V16.312C20.212 17.4016 19.3294 18.2851 18.24 18.2851H8.98786C7.89905 18.2851 7.01619 17.4018 7.01619 16.312V11.0211C7.01619 9.93149 7.89889 9.04797 8.98786 9.04797H18.2401ZM12.2942 10.9291V15.8986L16.0628 13.414L12.2942 10.9291Z" fill="#D42428"/>
</svg>
