<svg width="35" height="36" viewBox="0 0 35 36" fill="none" xmlns="http://www.w3.org/2000/svg">
<g clip-path="url(#clip0_138_810)">
<path d="M6.57016 5.47502L10.189 23.5661L8.18836 24.5659C6.97471 25.1737 6.2207 26.3944 6.2207 27.7512C6.2207 29.7139 7.81785 31.311 9.78052 31.311H10.5111C10.9359 32.502 12.0634 33.3618 13.3984 33.3618C14.7335 33.3618 15.861 32.502 16.2857 31.311H22.8842C23.3089 32.502 24.4364 33.3618 25.7715 33.3618C27.4678 33.3618 28.8477 31.9819 28.8477 30.2856C28.8477 28.5894 27.4678 27.2095 25.7715 27.2095C24.4364 27.2095 23.3089 28.0693 22.8842 29.2603H16.2857C15.861 28.0693 14.7335 27.2095 13.3984 27.2095C12.0634 27.2095 10.9359 28.0693 10.5111 29.2603H9.78052C8.94838 29.2603 8.27148 28.5834 8.27148 27.7512C8.27148 27.1754 8.59093 26.6577 9.10561 26.4004L11.5899 25.1587H28.5612L30.027 20.7613C29.3169 20.937 28.5859 21.0571 27.8223 21.0571C22.7334 21.0571 18.5938 16.9175 18.5938 11.8286C18.5938 11.4775 18.659 11.1443 18.6974 10.8032H9.72686L8.58095 5.07348C8.29555 3.64053 7.0268 2.6001 5.5648 2.6001H0V4.65088H5.5648C6.05247 4.65088 6.47507 4.99732 6.57016 5.47502Z" fill="#282828"/>
<path d="M27.8223 4.65088C23.8649 4.65088 20.6445 7.87122 20.6445 11.8286C20.6445 15.786 23.8649 19.0063 27.8223 19.0063C31.7797 19.0063 35 15.786 35 11.8286C35 7.87122 31.7797 4.65088 27.8223 4.65088ZM30.8984 12.854H28.8477V14.9048H26.7969V12.854H24.7461V10.8032H26.7969V8.75244H28.8477V10.8032H30.8984V12.854Z" fill="#008030"/>
</g>
<defs>
<clipPath id="clip0_138_810">
<rect width="35" height="35" fill="white" transform="translate(0 0.480957)"/>
</clipPath>
</defs>
</svg>
