<svg viewBox="0 0 27 27" fill="none" xmlns="http://www.w3.org/2000/svg">
<path fill-rule="evenodd" clip-rule="evenodd" d="M26.6875 13.6504C26.6875 20.8301 20.8672 26.6504 13.6875 26.6504C6.5078 26.6504 0.6875 20.8301 0.6875 13.6504C0.6875 6.47069 6.5078 0.650391 13.6875 0.650391C20.8672 0.650391 26.6875 6.47069 26.6875 13.6504ZM14.2169 19.352H13.1966C13.1966 19.352 10.9453 19.4875 8.96274 17.4235C6.80063 15.1721 4.89111 10.7047 4.89111 10.7047C4.89111 10.7047 4.78104 10.4118 4.90062 10.2702C5.03502 10.111 5.40117 10.1008 5.40117 10.1008L7.8402 10.0848C7.8402 10.0848 8.07009 10.1233 8.23462 10.244C8.37019 10.3437 8.4462 10.53 8.4462 10.53C8.4462 10.53 8.84038 11.5269 9.36249 12.4288C10.3814 14.1896 10.856 14.5747 11.202 14.3861C11.706 14.111 11.555 11.897 11.555 11.897C11.555 11.897 11.5642 11.0933 11.3012 10.7355C11.0975 10.4581 10.7133 10.3773 10.5437 10.3545C10.4065 10.3362 10.6317 10.0176 10.9237 9.87461C11.3626 9.65956 12.1378 9.64728 13.0536 9.65678C13.7671 9.66397 13.9724 9.70846 14.2514 9.7759C14.8988 9.93219 14.8786 10.433 14.835 11.5136C14.822 11.8365 14.8069 12.2112 14.8069 12.6439C14.8069 12.7412 14.8041 12.845 14.8012 12.9518C14.786 13.5052 14.7687 14.1388 15.133 14.3743C15.3198 14.4948 15.7767 14.3923 16.9197 12.4515C17.4615 11.5318 17.8677 10.4503 17.8677 10.4503C17.8677 10.4503 17.9565 10.2574 18.0943 10.1747C18.2355 10.0904 18.4257 10.1163 18.4257 10.1163L20.9925 10.1003C20.9925 10.1003 21.7637 10.0083 21.8886 10.3564C22.0195 10.7218 21.6003 11.5751 20.5517 12.9727C19.5559 14.3 19.072 14.7878 19.1175 15.2199C19.1506 15.535 19.4652 15.8203 20.0678 16.3797C21.3313 17.5525 21.668 18.1682 21.748 18.3146C21.7545 18.3264 21.7593 18.3352 21.7628 18.3409C22.3282 19.2785 21.1357 19.352 21.1357 19.352L18.8561 19.3837C18.8561 19.3837 18.3662 19.4808 17.7215 19.038C17.3843 18.8066 17.0547 18.4287 16.7407 18.0687C16.2606 17.5183 15.8169 17.0096 15.4382 17.1296C14.8028 17.3312 14.8227 18.7003 14.8227 18.7003C14.8227 18.7003 14.8273 18.9928 14.6825 19.1485C14.5251 19.3181 14.2169 19.352 14.2169 19.352Z" fill="#4D76A1"/>
</svg>
