<svg width="123" height="109" viewBox="0 0 123 109" fill="none" xmlns="http://www.w3.org/2000/svg">
<path d="M115.28 47.239V25.5926C115.28 24.6201 114.132 13.3535 113.48 12.7016L92.6579 1.48107C92.0125 0.835166 91.0993 0.42749 90.1152 0.42749H3.59502C1.60961 0.42749 0 2.0371 0 4.02251V90.5427C0 92.5281 1.60961 94.1377 3.59502 94.1377H90.3549V104.683C90.3549 107.575 93.6084 109.284 95.9895 107.644L104.735 101.619L113.48 107.644C115.855 109.279 119.115 107.586 119.115 104.683V72.5551C125.103 64.5823 123.467 53.1912 115.28 47.239ZM104.735 72.5676C98.7881 72.5676 93.9499 67.7294 93.9499 61.7825C93.9499 55.8357 98.7881 50.9975 104.735 50.9975C110.682 50.9975 115.52 55.8357 115.52 61.7825C115.52 67.7294 110.682 72.5676 104.735 72.5676ZM93.7103 12.7016L103.006 21.9976H93.7103V12.7016ZM7.19005 86.9477V7.61754H86.5202V25.5926C86.5202 27.5781 88.1298 29.1877 90.1152 29.1877H108.09V44.1262C96.9494 42.0133 86.7599 50.603 86.7599 61.7825C86.7599 65.8205 88.0987 69.5509 90.3549 72.5551V86.9477H7.19005ZM106.775 94.2928C105.546 93.447 103.924 93.447 102.695 94.2928L97.545 97.8411V78.2523C102.009 80.2089 107.229 80.3106 111.925 78.2523V97.8411L106.775 94.2928Z" fill="#B6D8AF"/>
<path d="M21.8094 29.1873H25.4044V33.022C25.4044 35.0074 27.014 36.617 28.9994 36.617C30.9848 36.617 32.5944 35.0074 32.5944 33.022V29.1873H36.1895C38.1749 29.1873 39.7845 27.5777 39.7845 25.5923C39.7845 23.6069 38.1749 21.9973 36.1895 21.9973H32.5944V18.6419C32.5944 16.6565 30.9848 15.0469 28.9994 15.0469C27.014 15.0469 25.4044 16.6565 25.4044 18.6419V21.9973H21.8094C19.824 21.9973 18.2144 23.6069 18.2144 25.5923C18.2144 27.5777 19.824 29.1873 21.8094 29.1873Z" fill="#B6D8AF"/>
<path d="M75.7347 58.1871H21.8094C19.824 58.1871 18.2144 59.7967 18.2144 61.7822C18.2144 63.7676 19.824 65.3772 21.8094 65.3772H75.7347C77.7201 65.3772 79.3297 63.7676 79.3297 61.7822C79.3297 59.7967 77.7201 58.1871 75.7347 58.1871Z" fill="#B6D8AF"/>
<path d="M75.7347 43.8069H21.8094C19.824 43.8069 18.2144 45.4165 18.2144 47.4019C18.2144 49.3873 19.824 50.9969 21.8094 50.9969H75.7347C77.7201 50.9969 79.3297 49.3873 79.3297 47.4019C79.3297 45.4165 77.7201 43.8069 75.7347 43.8069Z" fill="#B6D8AF"/>
<path d="M75.7347 72.5674H21.8094C19.824 72.5674 18.2144 74.177 18.2144 76.1624C18.2144 78.1478 19.824 79.7574 21.8094 79.7574H75.7347C77.7201 79.7574 79.3297 78.1478 79.3297 76.1624C79.3297 74.177 77.7201 72.5674 75.7347 72.5674Z" fill="#B6D8AF"/>
</svg>
