<svg width="158" height="158" viewBox="0 0 158 158" fill="none" xmlns="http://www.w3.org/2000/svg">
<path d="M114.397 74.0083C109.075 74.0026 103.814 75.1163 98.9521 77.2762V42.0536C98.9521 40.5486 97.7313 39.3297 96.2273 39.3297H92.7622V31.015C92.7622 29.5109 91.5425 28.2912 90.0384 28.2912H83.9519V25.028C83.9519 23.523 82.7321 22.3042 81.228 22.3042C79.7229 22.3042 78.5041 23.523 78.5041 25.028V28.2912H72.2517C70.7486 28.2912 69.5279 29.5109 69.5279 31.015V39.3297H65.8904V28.5357C65.8904 27.0307 64.6706 25.8118 63.1665 25.8118H56.1644V17.3464C56.1644 15.8423 54.9447 14.6226 53.4406 14.6226H37.7807V9.64019C37.7807 8.13514 36.5619 6.91632 35.0569 6.91632C33.5528 6.91632 32.332 8.13514 32.332 9.64019V14.6226H17.3214C15.8164 14.6226 14.5975 15.8423 14.5975 17.3464V25.8118H7.59642C6.09327 25.8118 4.87256 27.0307 4.87256 28.5357V128.528C4.87256 130.032 6.09327 131.252 7.59642 131.252H81.3322C90.589 147.302 110.033 154.387 127.446 148.055C144.857 141.723 155.208 123.803 151.993 105.556C148.778 87.3092 132.925 74.0074 114.397 74.0083ZM20.0453 20.0703H50.7167V25.8118H20.0453V20.0703ZM43.7715 125.804H37.7807V109.125H43.7715V125.804ZM32.332 125.804H26.9914V109.125H32.332V125.804ZM60.4407 125.804H49.2192V106.401C49.2192 104.896 47.9985 103.677 46.4954 103.677H24.2666C22.7634 103.677 21.5427 104.896 21.5427 106.401V125.804H10.3212V31.2596H60.4426L60.4407 125.804ZM74.9766 33.7389H87.3145V39.3297H74.9766V33.7389ZM65.8904 125.804V44.7775H93.5053V80.2503C91.5349 81.5421 89.6886 83.014 87.9874 84.6441C87.7211 84.5597 87.4425 84.5152 87.1619 84.5152H72.3712C70.8661 84.5152 69.6473 85.7359 69.6473 87.24C69.6473 88.7451 70.8661 89.9639 72.3712 89.9639H83.3718C81.7805 92.1807 80.4309 94.5605 79.3467 97.0645H72.3712C70.8661 97.0645 69.6473 98.2843 69.6473 99.7884C69.6473 101.292 70.8661 102.512 72.3712 102.512H77.4635C76.7707 105.158 76.365 107.87 76.2551 110.604H72.3712C70.8661 110.604 69.6473 111.823 69.6473 113.328C69.6473 114.831 70.8661 116.052 72.3712 116.052H76.4153C76.7517 119.391 77.5327 122.67 78.7335 125.804H65.8904ZM114.398 144.913C96.322 144.915 81.6677 130.262 81.6677 112.187C81.6668 94.1113 96.3201 79.457 114.396 79.457C132.472 79.457 147.125 94.1094 147.125 112.186C147.105 130.252 132.463 144.893 114.397 144.913H114.398Z" fill="#B6D8AF"/>
<path d="M18.8745 59.9152H51.8954C53.3995 59.9152 54.6193 58.6955 54.6193 57.1904C54.6193 55.6873 53.3995 54.4666 51.8954 54.4666H18.8745C17.3704 54.4666 16.1506 55.6873 16.1506 57.1904C16.1506 58.6955 17.3704 59.9152 18.8745 59.9152Z" fill="#B6D8AF"/>
<path d="M18.8745 75.1051H51.8954C53.3995 75.1051 54.6193 73.8862 54.6193 72.3812C54.6193 70.8771 53.3995 69.6564 51.8954 69.6564H18.8745C17.3704 69.6564 16.1506 70.8771 16.1506 72.3812C16.1506 73.8862 17.3704 75.1051 18.8745 75.1051Z" fill="#B6D8AF"/>
<path d="M18.8745 90.2954H51.8954C53.3995 90.2954 54.6193 89.0766 54.6193 87.5715C54.6193 86.0674 53.3995 84.8477 51.8954 84.8477H18.8745C17.3704 84.8477 16.1506 86.0674 16.1506 87.5715C16.1506 89.0766 17.3704 90.2954 18.8745 90.2954Z" fill="#B6D8AF"/>
<path d="M18.8745 44.7243H51.8954C53.3995 44.7243 54.6193 43.5055 54.6193 42.0005C54.6193 40.4964 53.3995 39.2766 51.8954 39.2766H18.8745C17.3704 39.2766 16.1506 40.4964 16.1506 42.0005C16.1506 43.5055 17.3704 44.7243 18.8745 44.7243Z" fill="#B6D8AF"/>
<path d="M72.3713 76.4262H86.5707C88.0748 76.4262 89.2945 75.2065 89.2945 73.7024C89.2945 72.1973 88.0748 70.9785 86.5707 70.9785H72.3713C70.8663 70.9785 69.6475 72.1973 69.6475 73.7024C69.6475 75.2065 70.8663 76.4262 72.3713 76.4262Z" fill="#B6D8AF"/>
<path d="M72.3713 63.2177H86.5707C88.0748 63.2177 89.2945 61.9989 89.2945 60.4939C89.2945 58.9898 88.0748 57.769 86.5707 57.769H72.3713C70.8663 57.769 69.6475 58.9898 69.6475 60.4939C69.6475 61.9989 70.8663 63.2177 72.3713 63.2177Z" fill="#B6D8AF"/>
<path d="M128.955 92.9633C125.098 89.0955 119.86 86.9194 114.396 86.9194C108.934 86.9194 103.696 89.0955 99.8379 92.9633C96.134 96.689 93.903 101.629 93.558 106.871C93.3723 109.753 93.795 112.643 94.7977 115.351C95.8478 118.151 97.4543 120.707 99.5223 122.865L112.412 136.593C112.927 137.142 113.646 137.453 114.397 137.453C115.15 137.453 115.868 137.142 116.384 136.593L129.272 122.865C131.34 120.707 132.947 118.151 133.995 115.352C134.999 112.644 135.422 109.755 135.236 106.872C134.892 101.63 132.659 96.689 128.955 92.9633ZM128.877 113.484C128.079 115.591 126.862 117.514 125.299 119.136L114.396 130.75L103.493 119.136C101.931 117.514 100.713 115.591 99.9147 113.484C99.1735 111.489 98.8588 109.36 98.9925 107.235C99.2503 103.305 100.921 99.6024 103.697 96.8093C106.532 93.966 110.382 92.3691 114.396 92.3691C118.41 92.3691 122.261 93.966 125.095 96.8093C127.871 99.6024 129.542 103.305 129.799 107.235C129.933 109.36 129.618 111.489 128.877 113.484Z" fill="#B6D8AF"/>
<path d="M114.396 96.1871C108.639 96.1871 103.957 100.964 103.957 106.833C103.957 112.705 108.639 117.48 114.396 117.48C120.152 117.48 124.835 112.705 124.835 106.833C124.835 100.964 120.152 96.1871 114.396 96.1871ZM114.396 112.032C111.644 112.032 109.404 109.7 109.404 106.833C109.404 103.968 111.644 101.635 114.396 101.635C117.147 101.635 119.387 103.968 119.387 106.833C119.387 109.699 117.148 112.032 114.396 112.032Z" fill="#B6D8AF"/>
</svg>
