<svg width="166" height="163" viewBox="0 0 166 163" fill="none" xmlns="http://www.w3.org/2000/svg">
<path d="M159.837 92.8126C162.391 89.6599 165.286 86.0869 165.286 81.6429C165.286 77.1993 162.391 73.6259 159.837 70.4736C158.242 68.5037 156.592 66.4664 156.223 64.8477C155.826 63.1029 156.444 60.4715 157.041 57.927C157.951 54.0457 158.983 49.6469 157.115 45.775C155.215 41.8382 151.09 39.8919 147.45 38.1751C145.121 37.0762 142.713 35.9405 141.64 34.5963C140.554 33.2359 139.975 30.623 139.416 28.0956C138.55 24.1797 137.568 19.7416 134.173 17.0308C130.794 14.3327 126.259 14.3565 122.261 14.3798C119.661 14.394 116.975 14.4088 115.388 13.6434C113.863 12.9077 112.23 10.8278 110.652 8.81689C108.156 5.63708 105.328 2.03244 101.03 1.05557C96.8812 0.11196 92.8479 2.08603 89.2894 3.82798C86.9202 4.98724 84.4699 6.18653 82.6424 6.18653C80.8153 6.18653 78.365 4.98724 75.9955 3.82733C72.437 2.0857 68.4053 0.112283 64.2541 1.05493C59.957 2.03179 57.1281 5.63611 54.6324 8.81657C53.0538 10.8278 51.4219 12.9071 49.8969 13.6428C48.3102 14.4082 45.6259 14.3943 43.0236 14.3791C39.0255 14.3575 34.4904 14.332 31.1111 17.0302C27.7166 19.7409 26.7346 24.1791 25.8688 28.0949C25.3097 30.6223 24.7315 33.2352 23.6452 34.5956C22.5718 35.9399 20.1639 37.0756 17.8347 38.1744C14.1949 39.8915 10.0692 41.8375 8.16969 45.7744C6.30183 49.646 7.3339 54.0454 8.24394 57.9267C8.84116 60.4715 9.4584 63.1025 9.06165 64.8474C8.69363 66.466 7.04368 68.503 5.44764 70.4729C2.89476 73.6259 0 77.1993 0 81.6429C0 86.0866 2.89476 89.6599 5.44861 92.8126C7.044 94.7825 8.69428 96.8198 9.06262 98.4381C9.45937 100.183 8.84213 102.814 8.24523 105.359C7.33487 109.24 6.3028 113.639 8.17034 117.511C10.0698 121.448 14.1958 123.394 17.8353 125.111C20.1642 126.21 22.5725 127.346 23.6458 128.69C24.7318 130.05 25.3097 132.663 25.8688 135.19C26.7346 139.106 27.7163 143.545 31.1115 146.255C34.4901 148.954 39.0238 148.929 43.0236 148.906C45.624 148.893 48.3105 148.877 49.8969 149.643C51.4222 150.379 53.0544 152.458 54.633 154.47C57.1288 157.649 59.9573 161.254 64.2544 162.231C68.403 163.173 72.4367 161.2 75.9958 159.459C78.365 158.299 80.8153 157.1 82.6424 157.1C84.4699 157.1 86.9202 158.299 89.2897 159.459C92.2113 160.889 95.4524 162.475 98.8162 162.475C99.5494 162.475 100.288 162.4 101.031 162.231C105.328 161.254 108.157 157.65 110.653 154.47C112.231 152.458 113.863 150.379 115.388 149.643C116.975 148.878 119.661 148.893 122.261 148.907C126.258 148.928 130.795 148.954 134.174 146.256C137.568 143.545 138.55 139.107 139.416 135.191C139.975 132.664 140.553 130.051 141.64 128.691C142.713 127.346 145.121 126.211 147.45 125.112C151.09 123.395 155.216 121.448 157.115 117.512C158.983 113.64 157.951 109.241 157.041 105.36C156.444 102.815 155.827 100.183 156.224 98.4381C156.592 96.8192 158.242 94.7825 159.837 92.8126ZM154.253 88.2892C152.14 90.8983 149.954 93.5961 149.216 96.8453C148.451 100.209 149.261 103.661 150.044 107.001C150.714 109.855 151.406 112.807 150.643 114.389C149.849 116.034 147.071 117.345 144.384 118.612C141.313 120.061 138.138 121.558 136.024 124.206C133.897 126.87 133.136 130.311 132.4 133.639C131.761 136.527 131.1 139.514 129.69 140.64C128.295 141.754 125.249 141.737 122.301 141.721C118.885 141.702 115.351 141.683 112.265 143.171C109.239 144.631 107.084 147.377 104.999 150.033C103.155 152.383 101.249 154.812 99.4373 155.224C97.7628 155.605 95.0608 154.283 92.4489 153.005C89.3443 151.485 86.1341 149.913 82.6424 149.913C79.1505 149.913 75.9406 151.484 72.836 153.004C70.2241 154.282 67.5214 155.606 65.8472 155.223C64.0362 154.811 62.1293 152.382 60.2856 150.033C58.2008 147.377 56.0457 144.631 53.0186 143.17C50.2794 141.849 47.1874 141.716 44.1367 141.716C43.7519 141.716 43.3665 141.719 42.9833 141.721C40.0365 141.736 36.9888 141.754 35.5945 140.64C34.1834 139.514 33.5229 136.527 32.8841 133.638C32.148 130.311 31.3871 126.87 29.2604 124.206C27.1459 121.558 23.9709 120.061 20.9002 118.612C18.2134 117.345 15.4355 116.034 14.6417 114.389C13.8782 112.806 14.5706 109.854 15.2398 107C16.023 103.661 16.8333 100.208 16.0689 96.8447C15.3302 93.5951 13.1447 90.8973 11.0312 88.2886C9.14074 85.9546 7.18572 83.5408 7.18572 81.6423C7.18572 79.7438 9.14074 77.3303 11.0318 74.996C13.1454 72.3873 15.3306 69.6897 16.0695 66.4396C16.8343 63.0764 16.024 59.6238 15.2405 56.2845C14.571 53.4301 13.8788 50.4785 14.6423 48.8957C15.4361 47.2503 18.214 45.94 20.9009 44.6726C23.9716 43.224 27.1469 41.7261 29.261 39.0783C31.3878 36.4147 32.1493 32.9734 32.885 29.6458C33.5239 26.7572 34.1847 23.7707 35.5951 22.6444C36.9901 21.531 40.0346 21.5474 42.9839 21.5639C46.4013 21.5836 49.9343 21.6023 53.0195 20.1138C56.046 18.6536 58.2012 15.9074 60.2856 13.2515C62.1296 10.902 64.0362 8.47276 65.8476 8.06084C67.5217 7.67894 70.2244 9.00155 72.8364 10.2802C75.9406 11.8001 79.1508 13.3716 82.6424 13.3716C86.1344 13.3716 89.3446 11.8004 92.4492 10.2802C95.0611 9.00187 97.7628 7.67991 99.4376 8.06116C101.249 8.47308 103.156 10.9023 104.999 13.2515C107.084 15.9077 109.239 18.654 112.266 20.1141C115.351 21.6023 118.88 21.582 122.302 21.5639C125.245 21.5481 128.296 21.531 129.69 22.6444C131.101 23.7707 131.762 26.7575 132.401 29.6458C133.137 32.9738 133.898 36.4151 136.025 39.0787C138.139 41.7265 141.314 43.224 144.385 44.6729C147.072 45.9403 149.849 47.2506 150.643 48.8961C151.407 50.4785 150.714 53.4298 150.045 56.2842C149.262 59.6228 148.452 63.0761 149.216 66.4389C149.955 69.6885 152.14 72.3866 154.254 74.9957C156.144 77.33 158.099 79.7438 158.099 81.642C158.099 83.5402 156.144 85.9552 154.253 88.2892Z" fill="#B6D8AF"/>
<path d="M82.6427 24.1523C50.9421 24.1523 25.1521 49.9427 25.1521 81.643C25.1521 113.343 50.9421 139.134 82.6427 139.134C114.343 139.134 140.133 113.343 140.133 81.643C140.133 49.9427 114.343 24.1523 82.6427 24.1523ZM82.6427 131.947C54.9051 131.947 32.3385 109.381 32.3385 81.643C32.3385 53.9054 54.9048 31.3387 82.6427 31.3387C110.381 31.3387 132.947 53.905 132.947 81.643C132.947 109.381 110.381 131.947 82.6427 131.947Z" fill="#B6D8AF"/>
<path d="M98.4689 65.8171C97.0652 64.4141 94.7909 64.4141 93.387 65.8171L57.3357 101.868C55.9327 103.271 55.9327 105.547 57.3357 106.95C58.0375 107.652 58.9569 108.003 59.8763 108.003C60.7957 108.003 61.7154 107.652 62.4169 106.95L98.4682 70.8987C99.8719 69.4954 99.8719 67.2201 98.4689 65.8171Z" fill="#B6D8AF"/>
<path d="M105.504 62.3748C106.424 62.3748 107.344 62.0232 108.046 61.3218L108.305 61.0628C109.707 59.6589 109.707 57.3843 108.303 55.9813C106.9 54.5783 104.624 54.5796 103.221 55.9826L102.962 56.2415C101.559 57.6454 101.56 59.9201 102.964 61.323C103.666 62.0245 104.585 62.3748 105.504 62.3748Z" fill="#B6D8AF"/>
<path d="M78.5744 64.1007C78.5744 56.6706 72.5298 50.6263 65.1001 50.6263C57.6703 50.6263 51.6257 56.6709 51.6257 64.1007C51.6257 71.5304 57.6703 77.575 65.1001 77.575C72.5298 77.575 78.5744 71.5301 78.5744 64.1007ZM58.8121 64.1007C58.8121 60.6335 61.6333 57.8127 65.1001 57.8127C68.5669 57.8127 71.388 60.6335 71.388 64.1007C71.388 67.5678 68.5669 70.3886 65.1001 70.3886C61.6333 70.3886 58.8121 67.5678 58.8121 64.1007Z" fill="#B6D8AF"/>
<path d="M100.185 85.7112C92.7549 85.7112 86.7107 91.7558 86.7107 99.1856C86.7107 106.615 92.7552 112.66 100.185 112.66C107.615 112.66 113.659 106.615 113.659 99.1856C113.659 91.7555 107.615 85.7112 100.185 85.7112ZM100.185 105.474C96.7179 105.474 93.8971 102.652 93.8971 99.1856C93.8971 95.7188 96.7182 92.8976 100.185 92.8976C103.652 92.8976 106.473 95.7188 106.473 99.1856C106.473 102.652 103.652 105.474 100.185 105.474Z" fill="#B6D8AF"/>
</svg>
