<svg width="186" height="186" viewBox="0 0 186 186" fill="none" xmlns="http://www.w3.org/2000/svg">
<path d="M128.658 86.7699H56.8481V92.7541H128.658V86.7699Z" fill="#B6D8AF"/>
<path d="M128.658 101.731H56.8481V107.715H128.658V101.731Z" fill="#B6D8AF"/>
<path d="M128.658 116.691H56.8481V122.675H128.658V116.691Z" fill="#B6D8AF"/>
<path d="M185.508 29.9206V25.4324C185.508 11.9145 174.895 0.85579 161.571 0.0747716V0H70.3136C56.2898 0 44.8812 11.4086 44.8812 25.4324V137.634H0V142.123C0 156.146 11.4086 167.555 25.4324 167.555H115.194C116.274 167.555 117.349 167.462 118.417 167.328C124.605 178.168 136.253 185.507 149.603 185.507C169.402 185.507 185.508 169.401 185.508 149.602C185.508 135.42 177.351 122.832 164.564 116.986V86.769H170.548V80.7848H164.564H140.627V29.9206H185.508ZM179.467 23.9363H140.681C141.45 13.9069 149.851 5.98424 160.072 5.98424C170.293 5.98424 178.701 13.9069 179.467 23.9363ZM25.4324 161.571C15.2113 161.571 6.80673 153.648 6.04079 143.619H89.8064C90.2255 150.806 93.6423 157.203 98.8242 161.571H25.4324ZM149.603 179.524C133.105 179.524 119.682 166.101 119.682 149.603C119.682 146.491 120.155 143.475 121.044 140.627H143.891C145.321 149.103 152.694 155.587 161.575 155.587C169.674 155.587 176.532 150.192 178.758 142.811C179.261 145.002 179.524 147.276 179.524 149.604C179.524 166.101 166.101 179.524 149.603 179.524ZM150.028 140.627H173.115C171.777 145.773 167.133 149.604 161.571 149.604C156.009 149.604 151.365 145.773 150.028 140.627ZM160.483 121.753C167.008 124.305 172.229 128.897 175.544 134.642H123.665C126.977 128.901 132.201 124.308 138.726 121.753L140.627 121.011V86.7697H158.579V121.011L160.483 121.753ZM128.659 80.7854V86.7697H134.643V116.986C121.855 122.833 113.699 135.42 113.699 149.603C113.699 153.792 114.459 157.801 115.781 161.541C115.584 161.548 115.389 161.571 115.195 161.571C104.471 161.571 95.7466 152.846 95.7466 142.123V137.635H50.8648V25.4324C50.8648 14.7086 59.5898 5.98424 70.313 5.98424H143.72C138.176 10.6521 134.642 17.6354 134.642 25.4324V80.7854H128.659Z" fill="#B6D8AF"/>
<path d="M140.627 155.587C135.679 155.587 131.651 159.615 131.651 164.564C131.651 169.512 135.678 173.54 140.627 173.54C145.577 173.54 149.604 169.512 149.604 164.564C149.604 159.615 145.577 155.587 140.627 155.587ZM140.627 167.556C138.975 167.556 137.635 166.212 137.635 164.564C137.635 162.915 138.975 161.571 140.627 161.571C142.279 161.571 143.619 162.915 143.619 164.564C143.619 166.212 142.279 167.556 140.627 167.556Z" fill="#B6D8AF"/>
<path d="M119.682 23.9365C114.733 23.9365 110.706 27.9641 110.706 32.9129C110.706 35.2735 111.639 37.4067 113.132 39.0109L107.519 48.3667C106.634 48.0708 105.706 47.8729 104.722 47.8729C102.307 47.8729 100.123 48.8424 98.5079 50.3981L92.3709 47.3281C92.5953 46.5439 92.7536 45.7334 92.7536 44.8807C92.7536 39.932 88.7266 35.9044 83.7772 35.9044C78.8279 35.9044 74.8009 39.932 74.8009 44.8807C74.8009 46.571 75.2973 48.1361 76.1141 49.4858L68.8405 60.3981C67.8917 60.06 66.8864 59.8413 65.8245 59.8413C60.8758 59.8413 56.8481 63.869 56.8481 68.8177C56.8481 73.7665 60.8751 77.7941 65.8245 77.7941C70.7739 77.7941 74.8009 73.7665 74.8009 68.8177C74.8009 67.1275 74.3045 65.5623 73.4877 64.2127L80.7612 53.3004C81.71 53.6384 82.7154 53.8571 83.7772 53.8571C85.6654 53.8571 87.4153 53.2646 88.8605 52.2655L95.8532 55.7635C95.8111 56.1222 95.7457 56.4785 95.7457 56.8499C95.7457 61.7986 99.7727 65.8262 104.722 65.8262C109.671 65.8262 113.698 61.7986 113.698 56.8499C113.698 55.0842 113.169 53.4481 112.283 52.0563L118.459 41.7667C118.863 41.8208 119.264 41.8893 119.683 41.8893C124.632 41.8893 128.66 37.8616 128.66 32.9129C128.66 27.9641 124.631 23.9365 119.682 23.9365ZM65.8251 71.8098C64.1733 71.8098 62.833 70.4665 62.833 68.8177C62.833 67.169 64.1733 65.8256 65.8251 65.8256C67.477 65.8256 68.8173 67.169 68.8173 68.8177C68.8173 70.4665 67.477 71.8098 65.8251 71.8098ZM80.7851 44.8814C80.7851 43.2326 82.1253 41.8893 83.7772 41.8893C85.4291 41.8893 86.7694 43.2326 86.7694 44.8814C86.7694 46.5301 85.4291 47.8735 83.7772 47.8735C82.126 47.8729 80.7851 46.5295 80.7851 44.8814ZM104.722 59.8413C103.07 59.8413 101.73 58.498 101.73 56.8492C101.73 55.2005 103.07 53.8571 104.722 53.8571C106.374 53.8571 107.714 55.2005 107.714 56.8492C107.714 58.498 106.373 59.8413 104.722 59.8413ZM119.682 35.905C118.03 35.905 116.69 34.5616 116.69 32.9129C116.69 31.2641 118.03 29.9208 119.682 29.9208C121.334 29.9208 122.674 31.2641 122.674 32.9129C122.674 34.5616 121.334 35.905 119.682 35.905Z" fill="#B6D8AF"/>
</svg>
