<svg width="128" height="128" viewBox="0 0 128 128" fill="none" xmlns="http://www.w3.org/2000/svg">
<g clip-path="url(#clip0_169_578)">
<path d="M46.0105 84.7912C40.1969 79.1182 36.5998 71.4419 35.9605 63.3443L44.2723 57.2125L44.8292 35.3246L31.9291 30.6568C27.4088 29.0211 22.4005 31.368 20.7649 35.8883C9.28903 67.6033 25.6664 102.56 57.3856 114.038C61.9059 115.673 66.9142 113.327 68.5498 108.806L73.2176 95.9061L56.0414 82.328L46.0105 84.7912ZM66.327 97.8679L63.0846 106.829C62.5394 108.335 60.8699 109.118 59.3632 108.573C30.7346 98.2135 15.871 66.4947 26.2301 37.8659C26.7753 36.3591 28.4447 35.5768 29.9515 36.122L38.9123 39.3644L38.5343 54.2231L30.0164 60.5071L30.0672 62.0349C30.4249 72.7659 35.2281 83.0163 43.2456 90.1578L44.387 91.1745L54.6667 88.65L66.327 97.8679Z" fill="#B6D8AF"/>
<path d="M96.9646 22.8737C80.3901 16.8763 62.0265 25.4815 56.0292 42.056C54.2986 46.8386 53.732 51.9761 54.3744 56.9879L43.7595 72.7676L62.678 74.708C66.1183 78.4087 70.4288 81.2608 75.2115 82.9914C91.7859 88.9887 110.15 80.3836 116.147 63.8091C122.144 47.2346 113.539 28.871 96.9646 22.8737ZM77.189 77.5261C69.5912 74.7769 66.024 69.6059 65.5384 69.159L53.9886 67.9744L60.469 58.3409C60.4374 57.7052 58.7534 51.6085 61.4944 44.0335C66.4013 30.4726 81.4261 23.432 94.987 28.3389C108.548 33.2458 115.589 48.2706 110.682 61.8315C105.775 75.3925 90.7499 82.4331 77.189 77.5261Z" fill="#B6D8AF"/>
<path d="M87.2816 31.5962L67.7908 51.0872L71.9005 55.1969L72.7517 54.3456V67.672H101.812V54.3456L102.663 55.1969L106.773 51.0872L87.2816 31.5962ZM95.9996 61.86H90.1876V50.2359H84.3756V61.86H78.5636V48.5336L87.2816 39.8156L95.9996 48.5336V61.86Z" fill="#B6D8AF"/>
</g>
<defs>
<clipPath id="clip0_169_578">
<rect width="99.1919" height="99.1919" fill="white" transform="translate(33.7502) rotate(19.8923)"/>
</clipPath>
</defs>
</svg>
