<svg version="1.1" xmlns="http://www.w3.org/2000/svg" xmlns:xlink="http://www.w3.org/1999/xlink">
  <symbol id="id-svg-logo" viewBox="0 0 293 61" fill="none">
    <circle cx="122.503" cy="33.4709" r="26.8938" fill="#B6D8AF" stroke="#008030" stroke-width="1.12822"/>
    <path fill-rule="evenodd" clip-rule="evenodd" d="M134.019 9.53817C136.984 7.44193 139.352 4.65906 141.378 1.6463C143.623 -1.69086 142.797 1.89962 143.514 11.4175C143.514 22.181 143.893 34.3723 136.153 41.8514C135.261 42.7127 134.272 43.5411 133.158 44.3897C129.022 47.5409 120.684 49.9789 115.964 49.4193H112.562L118.153 42.5101C121.752 38.101 124.564 35.7588 126.795 35.3132C128.614 34.9488 130.42 34.1353 130.81 33.5047C131.266 32.7668 130.403 32.6382 128.39 33.1425L125.263 33.9277L128.923 29.3065C130.935 26.7647 132.355 24.4563 132.076 24.1777C131.796 23.899 128.891 26.9711 125.618 31.0045C122.346 35.0379 119.297 38.5681 118.842 38.849C118.389 39.1288 118.36 37.0958 118.78 34.3305C119.2 31.5652 119.174 29.302 118.724 29.302C118.272 29.302 117.54 32.2151 117.094 35.7769C116.639 39.4289 115.246 43.7105 113.902 45.5992L111.518 48.9477L110.745 46.1768C109.204 40.6531 108.03 32.7906 112.562 26.0572C117.094 19.3239 125.444 14.3478 134.019 9.53817Z" fill="#008030"/>
    <path d="M2.67884 45.6503V21.9877H9.23676L18.7018 37.436H15.2538L24.4484 21.9877H31.0063L31.074 45.6503H23.8062L23.7386 32.9401H24.8879L18.6004 43.5207H15.0848L8.52688 32.9401H9.94664V45.6503H2.67884ZM48.6144 46.1912C46.6988 46.1912 44.9185 45.887 43.2734 45.2785C41.6508 44.67 40.2423 43.8137 39.0479 42.7094C37.8535 41.5826 36.9183 40.2643 36.2422 38.7544C35.5887 37.2445 35.2619 35.5994 35.2619 33.819C35.2619 32.0162 35.5887 30.3711 36.2422 28.8837C36.9183 27.3738 37.8535 26.0667 39.0479 24.9625C40.2423 23.8357 41.6508 22.968 43.2734 22.3596C44.9185 21.7511 46.6988 21.4469 48.6144 21.4469C50.5525 21.4469 52.3328 21.7511 53.9554 22.3596C55.578 22.968 56.9864 23.8357 58.1808 24.9625C59.3752 26.0667 60.2992 27.3738 60.9527 28.8837C61.6288 30.3711 61.9669 32.0162 61.9669 33.819C61.9669 35.5994 61.6288 37.2445 60.9527 38.7544C60.2992 40.2643 59.3752 41.5826 58.1808 42.7094C56.9864 43.8137 55.578 44.67 53.9554 45.2785C52.3328 45.887 50.5525 46.1912 48.6144 46.1912ZM48.6144 39.7347C49.3581 39.7347 50.0454 39.5995 50.6764 39.329C51.33 39.0586 51.8933 38.6755 52.3666 38.1797C52.8624 37.6614 53.2455 37.0417 53.5159 36.3205C53.7864 35.5768 53.9216 34.743 53.9216 33.819C53.9216 32.8951 53.7864 32.0725 53.5159 31.3514C53.2455 30.6077 52.8624 29.9879 52.3666 29.4922C51.8933 28.9738 51.33 28.5795 50.6764 28.309C50.0454 28.0386 49.3581 27.9034 48.6144 27.9034C47.8707 27.9034 47.1721 28.0386 46.5186 28.309C45.8876 28.5795 45.3242 28.9738 44.8284 29.4922C44.3551 29.9879 43.9833 30.6077 43.7128 31.3514C43.4424 32.0725 43.3072 32.8951 43.3072 33.819C43.3072 34.743 43.4424 35.5768 43.7128 36.3205C43.9833 37.0417 44.3551 37.6614 44.8284 38.1797C45.3242 38.6755 45.8876 39.0586 46.5186 39.329C47.1721 39.5995 47.8707 39.7347 48.6144 39.7347ZM78.2449 45.6503V38.4501L80.1041 40.0389H74.6617C72.4758 40.0389 70.5827 39.6896 68.9827 38.991C67.4052 38.2699 66.1883 37.2445 65.3319 35.9149C64.4755 34.5852 64.0474 32.9965 64.0474 31.1485C64.0474 29.2555 64.4868 27.633 65.3657 26.2808C66.2671 24.9061 67.5404 23.8469 69.1855 23.1033C70.8306 22.3596 72.7687 21.9877 74.9998 21.9877H86.0874V45.6503H78.2449ZM64.1488 45.6503L70.0982 37.0304H78.0421L72.4983 45.6503H64.1488ZM78.2449 35.9487V26.2132L80.1041 28.14H75.135C74.1209 28.14 73.3547 28.3766 72.8363 28.8499C72.3405 29.3231 72.0926 30.0443 72.0926 31.0133C72.0926 32.0049 72.3518 32.7598 72.8701 33.2782C73.3885 33.774 74.1434 34.0219 75.135 34.0219H80.1041L78.2449 35.9487Z" fill="currentColor" fill-opacity="var(--opacityLogoPath)"/>
    <path d="M175.736 21.9877H183.713V45.6503H175.736V21.9877ZM168.366 45.6503H160.389V21.9877H168.366V45.6503ZM176.276 36.929H167.825V30.3711H176.276V36.929ZM185.926 45.6503L196.27 21.9877H204.112L214.456 45.6503H206.208L198.568 25.7737H201.678L194.039 45.6503H185.926ZM192.078 41.5263L194.106 35.7796H204.991L207.019 41.5263H192.078ZM217.18 39.4643C218.577 39.8248 219.67 39.9488 220.459 39.8361C221.247 39.7009 221.946 39.2164 222.554 38.3825L223.704 36.76L224.38 36.0163L231.242 21.9877H238.949L229.45 39.8023C228.414 41.7404 227.163 43.2503 225.698 44.332C224.256 45.3912 222.656 45.9996 220.898 46.1574C219.14 46.3151 217.281 45.9996 215.32 45.2109L217.18 39.4643ZM224.278 42.27L213.258 21.9877H221.676L228.605 36.76L224.278 42.27ZM255.142 45.6503L249.26 34.5627L255.615 30.8443L264.134 45.6503H255.142ZM240.404 45.6503V21.9877H248.381V45.6503H240.404ZM246.083 37.098V30.8105H255.041V37.098H246.083ZM256.393 34.6641L249.057 33.9204L255.852 21.9877H264.168L256.393 34.6641ZM263.107 45.6503L273.45 21.9877H281.293L291.637 45.6503H283.389L275.749 25.7737H278.859L271.219 45.6503H263.107ZM269.259 41.5263L271.287 35.7796H282.172L284.2 41.5263H269.259Z" fill="currentColor"/>
    <path d="M160.971 16.582V11.065H162.027L164.376 14.9585H163.816L166.126 11.065H167.182L167.19 16.582H165.992L165.984 12.9014H166.212L164.36 15.9988H163.793L161.901 12.9014H162.169V16.582H160.971ZM169.734 13.2876H172.39V14.2807H169.734V13.2876ZM169.829 15.5574H172.832V16.582H168.56V11.065H172.729V12.0896H169.829V15.5574ZM177.52 16.0146V12.1054H175.629L175.605 12.9093C175.589 13.2508 175.566 13.574 175.534 13.8787C175.508 14.1834 175.466 14.4619 175.408 14.7141C175.35 14.9611 175.274 15.1713 175.179 15.3446C175.09 15.518 174.977 15.6415 174.84 15.7151L173.477 15.5417C173.666 15.5469 173.821 15.4813 173.942 15.3446C174.068 15.208 174.168 15.0163 174.241 14.7693C174.315 14.5171 174.368 14.2229 174.399 13.8866C174.436 13.5503 174.462 13.1851 174.478 12.7911L174.541 11.065H178.781V16.0146H177.52ZM173.296 17.7248L173.304 15.5417H179.554V17.7248H178.371V16.582H174.478V17.7248H173.296ZM180.413 16.582V11.065H181.682V14.659L184.314 11.065H185.512V16.582H184.251V12.996L181.619 16.582H180.413ZM186.886 16.582V11.065H188.155V15.5417H190.614V11.065H191.883V16.582H186.886ZM191.497 17.7485V16.2825L191.772 16.582H190.614V15.5417H192.671V17.7485H191.497ZM193.513 16.582V11.065H194.782V14.659L197.414 11.065H198.612V16.582H197.351V12.996L194.719 16.582H193.513ZM203.769 11.065H205.046V16.582H203.769V11.065ZM201.263 16.582H199.986V11.065H201.263V16.582ZM203.863 14.3201H201.168V13.2403H203.863V14.3201ZM209.037 16.6766C208.611 16.6766 208.214 16.6083 207.847 16.4717C207.484 16.3298 207.169 16.1302 206.901 15.8727C206.633 15.6152 206.423 15.3131 206.27 14.9663C206.123 14.6196 206.05 14.2386 206.05 13.8235C206.05 13.4084 206.123 13.0275 206.27 12.6807C206.423 12.3339 206.633 12.0318 206.901 11.7744C207.174 11.5169 207.492 11.3199 207.854 11.1833C208.217 11.0414 208.614 10.9705 209.045 10.9705C209.523 10.9705 209.954 11.0545 210.337 11.2227C210.726 11.3855 211.052 11.6272 211.314 11.9477L210.495 12.7044C210.306 12.4889 210.095 12.3287 209.864 12.2236C209.633 12.1133 209.381 12.0581 209.108 12.0581C208.85 12.0581 208.614 12.1001 208.398 12.1842C208.183 12.2683 207.996 12.3891 207.839 12.5467C207.681 12.7044 207.558 12.8909 207.468 13.1063C207.384 13.3217 207.342 13.5608 207.342 13.8235C207.342 14.0862 207.384 14.3253 207.468 14.5407C207.558 14.7562 207.681 14.9427 207.839 15.1003C207.996 15.258 208.183 15.3788 208.398 15.4629C208.614 15.5469 208.85 15.589 209.108 15.589C209.381 15.589 209.633 15.5364 209.864 15.4313C210.095 15.321 210.306 15.1555 210.495 14.9348L211.314 15.6914C211.052 16.0119 210.726 16.2563 210.337 16.4244C209.954 16.5925 209.52 16.6766 209.037 16.6766ZM215.717 16.582L213.999 13.926L215.031 13.3034L217.167 16.582H215.717ZM212.131 16.582V11.065H213.4V16.582H212.131ZM213.029 14.3595V13.2955H214.952V14.3595H213.029ZM215.149 13.9654L213.975 13.8235L215.764 11.065H217.112L215.149 13.9654ZM217.035 16.582L219.494 11.065H220.755L223.222 16.582H221.882L219.864 11.7113H220.369L218.343 16.582H217.035ZM218.264 15.3998L218.603 14.4304H221.441L221.787 15.3998H218.264ZM226.813 16.582V14.8402L227.128 15.1161H225.615C225.137 15.1161 224.725 15.0373 224.378 14.8796C224.031 14.722 223.766 14.4935 223.582 14.194C223.398 13.8945 223.306 13.5372 223.306 13.1221C223.306 12.6912 223.403 12.3234 223.598 12.0187C223.797 11.7087 224.076 11.4722 224.433 11.3094C224.79 11.1465 225.211 11.065 225.694 11.065H228.074V16.582H226.813ZM223.322 16.582L224.693 14.6038H225.986L224.669 16.582H223.322ZM226.813 14.4304V11.7744L227.128 12.1054H225.726C225.363 12.1054 225.085 12.1894 224.89 12.3576C224.701 12.5257 224.606 12.7753 224.606 13.1063C224.606 13.4268 224.698 13.6738 224.882 13.8472C225.066 14.0206 225.337 14.1073 225.694 14.1073H227.128L226.813 14.4304ZM235.259 16.582L233.541 13.926L234.573 13.3034L236.709 16.582H235.259ZM231.673 16.582V11.065H232.942V16.582H231.673ZM232.571 14.3595V13.2955H234.494V14.3595H232.571ZM234.691 13.9654L233.517 13.8235L235.306 11.065H236.654L234.691 13.9654ZM239.924 16.6766C239.488 16.6766 239.084 16.6057 238.711 16.4638C238.343 16.3219 238.022 16.1223 237.749 15.8648C237.481 15.6074 237.271 15.3052 237.119 14.9585C236.971 14.6117 236.898 14.2334 236.898 13.8235C236.898 13.4137 236.971 13.0354 237.119 12.6886C237.271 12.3418 237.484 12.0397 237.757 11.7822C238.03 11.5248 238.351 11.3251 238.718 11.1833C239.086 11.0414 239.486 10.9705 239.916 10.9705C240.353 10.9705 240.752 11.0414 241.114 11.1833C241.482 11.3251 241.8 11.5248 242.068 11.7822C242.341 12.0397 242.554 12.3418 242.706 12.6886C242.859 13.0301 242.935 13.4084 242.935 13.8235C242.935 14.2334 242.859 14.6143 242.706 14.9663C242.554 15.3131 242.341 15.6152 242.068 15.8727C241.8 16.1249 241.482 16.3219 241.114 16.4638C240.752 16.6057 240.355 16.6766 239.924 16.6766ZM239.916 15.589C240.163 15.589 240.389 15.5469 240.594 15.4629C240.804 15.3788 240.988 15.258 241.146 15.1003C241.304 14.9427 241.424 14.7562 241.508 14.5407C241.598 14.3253 241.642 14.0862 241.642 13.8235C241.642 13.5608 241.598 13.3217 241.508 13.1063C241.424 12.8909 241.304 12.7044 241.146 12.5467C240.994 12.3891 240.812 12.2683 240.602 12.1842C240.392 12.1001 240.163 12.0581 239.916 12.0581C239.669 12.0581 239.441 12.1001 239.231 12.1842C239.026 12.2683 238.845 12.3891 238.687 12.5467C238.529 12.7044 238.406 12.8909 238.316 13.1063C238.232 13.3217 238.19 13.5608 238.19 13.8235C238.19 14.081 238.232 14.3201 238.316 14.5407C238.406 14.7562 238.527 14.9427 238.679 15.1003C238.837 15.258 239.021 15.3788 239.231 15.4629C239.441 15.5469 239.669 15.589 239.916 15.589ZM243.919 16.582V11.065H244.975L247.323 14.9585H246.764L249.073 11.065H250.129L250.137 16.582H248.939L248.931 12.9014H249.16L247.308 15.9988H246.74L244.849 12.9014H245.117V16.582H243.919ZM251.508 16.582V11.065H256.536V16.582H255.267V11.8138L255.559 12.1054H252.485L252.776 11.8138V16.582H251.508ZM257.281 16.582L259.74 11.065H261.001L263.468 16.582H262.128L260.11 11.7113H260.615L258.589 16.582H257.281ZM258.51 15.3998L258.849 14.4304H261.687L262.033 15.3998H258.51ZM267.983 11.065H269.259V16.582H267.983V11.065ZM265.476 16.582H264.199V11.065H265.476V16.582ZM268.077 14.3201H265.382V13.2403H268.077V14.3201ZM270.642 16.582V11.065H271.91V14.659L274.543 11.065H275.741V16.582H274.48V12.996L271.847 16.582H270.642ZM280.259 16.582V14.8402L280.574 15.1161H279.061C278.583 15.1161 278.171 15.0373 277.824 14.8796C277.477 14.722 277.212 14.4935 277.028 14.194C276.844 13.8945 276.752 13.5372 276.752 13.1221C276.752 12.6912 276.849 12.3234 277.044 12.0187C277.243 11.7087 277.522 11.4722 277.879 11.3094C278.236 11.1465 278.657 11.065 279.14 11.065H281.52V16.582H280.259ZM276.768 16.582L278.139 14.6038H279.432L278.115 16.582H276.768ZM280.259 14.4304V11.7744L280.574 12.1054H279.172C278.809 12.1054 278.531 12.1894 278.336 12.3576C278.147 12.5257 278.052 12.7753 278.052 13.1063C278.052 13.4268 278.144 13.6738 278.328 13.8472C278.512 14.0206 278.783 14.1073 279.14 14.1073H280.574L280.259 14.4304Z" fill="currentColor"/>
  </symbol>
  <symbol id="id-svg-eye" viewBox="0 0 39 24" fill="none" xmlns="http://www.w3.org/2000/svg">
    <path d="M19.4796 18.5408C22.2947 18.5408 24.5768 16.2587 24.5768 13.4436C24.5768 10.6285 22.2947 8.34644 19.4796 8.34644C16.6645 8.34644 14.3824 10.6285 14.3824 13.4436C14.3824 16.2587 16.6645 18.5408 19.4796 18.5408Z" fill="#282828"/>
    <path d="M37.9654 12.8914C37.8032 12.7012 35.8781 10.4796 32.7587 8.19779C32.7909 8.174 33.6728 7.24802 33.6728 7.24802C34.0049 6.91585 34.0049 6.37895 33.6728 6.04678C33.3406 5.71461 32.8037 5.71461 32.4715 6.04678C32.4715 6.04678 31.4198 7.08745 31.3807 7.21913C30.1166 6.38659 28.7455 5.62711 27.218 4.96448L27.8858 3.62986C28.0956 3.2102 27.9257 2.69963 27.506 2.48979C27.0847 2.27911 26.5758 2.45072 26.3659 2.86954L25.6294 4.34262C23.9643 3.76239 22.1863 3.36736 20.3292 3.27391V1.55021C20.3292 1.08127 19.9486 0.700684 19.4797 0.700684C19.0107 0.700684 18.6301 1.08127 18.6301 1.55021V3.27306C16.773 3.36736 14.995 3.76154 13.3299 4.34177L12.5934 2.86869C12.3835 2.44902 11.8738 2.27826 11.4533 2.48894C11.0336 2.69878 10.8637 3.20935 11.0735 3.62901L11.7413 4.96363C10.2138 5.62626 8.85032 6.39339 7.58622 7.22678C7.54714 7.0951 6.48778 6.04678 6.48778 6.04678C6.15561 5.71461 5.61871 5.71461 5.28654 6.04678C4.95438 6.37895 4.95438 6.91585 5.28654 7.24802C5.28654 7.24802 6.1879 8.15022 6.22018 8.17485C3.1007 10.4567 1.15613 12.702 0.993865 12.8914C0.722016 13.21 0.722016 13.6773 0.993865 13.9958C1.33028 14.3892 9.35155 23.638 19.4797 23.638C29.6078 23.638 37.629 14.3892 37.9654 13.9958C38.2373 13.6773 38.2373 13.21 37.9654 12.8914ZM19.4797 20.2399C15.7324 20.2399 12.6834 17.1909 12.6834 13.4436C12.6834 9.69636 15.7324 6.6474 19.4797 6.6474C23.2269 6.6474 26.2759 9.69636 26.2759 13.4436C26.2759 17.1909 23.2269 20.2399 19.4797 20.2399Z" fill="#282828"/>
  </symbol>
  <symbol id="id-svg-loupe" viewBox="0 0 20 20" fill="none" xmlns="http://www.w3.org/2000/svg">
    <circle cx="7.19616" cy="7.21789" r="6.15065" stroke="#282828" stroke-width="1.66913"/>
    <path d="M11.7098 11.9993L18.5966 18.8861" stroke="#282828" stroke-width="1.66913"/>
  </symbol>
  <symbol id="id-svg-burger" viewBox="0 0 20 12" fill="none" xmlns="http://www.w3.org/2000/svg">
    <path d="M0.38562 1.22815H19.958" stroke="#282828" stroke-width="1.58083"/>
    <path d="M0.38562 5.724H19.958" stroke="#282828" stroke-width="1.58083"/>
    <path d="M0.38562 10.8192H19.958" stroke="#282828" stroke-width="1.58083"/>
  </symbol>
</svg>
